<mxfile host="app.diagrams.net" modified="2023-08-20T13:56:29.042Z" agent="Mozilla/5.0 (Windows NT 10.0; Win64; x64) AppleWebKit/537.36 (KHTML, like Gecko) Chrome/116.0.0.0 Safari/537.36" etag="BzQUgyqhoh4D4ttnvu3_" version="21.6.8" type="google">
  <diagram name="Page-1" id="uK9FIqH9BSSlCcV0Kpew">
    <mxGraphModel grid="1" page="1" gridSize="10" guides="1" tooltips="1" connect="1" arrows="1" fold="1" pageScale="1" pageWidth="827" pageHeight="1169" math="0" shadow="0">
      <root>
        <mxCell id="0" />
        <mxCell id="1" parent="0" />
        <mxCell id="rYMrGPzN0T9A6hr5LJIt-1" value="Osoba" style="whiteSpace=wrap;html=1;aspect=fixed;" vertex="1" parent="1">
          <mxGeometry x="-50" y="450" width="100" height="100" as="geometry" />
        </mxCell>
        <mxCell id="rYMrGPzN0T9A6hr5LJIt-3" value="Unos novog korisnika" style="rounded=1;whiteSpace=wrap;html=1;" vertex="1" parent="1">
          <mxGeometry x="230" y="430" width="140" height="120" as="geometry" />
        </mxCell>
        <mxCell id="rYMrGPzN0T9A6hr5LJIt-24" value="Korisnik" style="whiteSpace=wrap;html=1;aspect=fixed;" vertex="1" parent="1">
          <mxGeometry x="300" y="790" width="106" height="106" as="geometry" />
        </mxCell>
        <mxCell id="rYMrGPzN0T9A6hr5LJIt-25" value="Plaćanje pretplate" style="rounded=1;whiteSpace=wrap;html=1;" vertex="1" parent="1">
          <mxGeometry x="90" y="793" width="120" height="100" as="geometry" />
        </mxCell>
        <mxCell id="rYMrGPzN0T9A6hr5LJIt-26" value="" style="endArrow=classic;html=1;rounded=0;exitX=0;exitY=0.5;exitDx=0;exitDy=0;entryX=1;entryY=0.5;entryDx=0;entryDy=0;" edge="1" parent="1" source="rYMrGPzN0T9A6hr5LJIt-24" target="rYMrGPzN0T9A6hr5LJIt-25">
          <mxGeometry width="50" height="50" relative="1" as="geometry">
            <mxPoint x="380" y="780" as="sourcePoint" />
            <mxPoint x="430" y="730" as="targetPoint" />
          </mxGeometry>
        </mxCell>
        <mxCell id="rYMrGPzN0T9A6hr5LJIt-27" value="Detalji računa" style="text;html=1;align=center;verticalAlign=middle;resizable=0;points=[];autosize=1;strokeColor=none;fillColor=none;" vertex="1" parent="1">
          <mxGeometry x="210" y="810" width="100" height="30" as="geometry" />
        </mxCell>
        <mxCell id="rYMrGPzN0T9A6hr5LJIt-34" value="Banka" style="whiteSpace=wrap;html=1;aspect=fixed;" vertex="1" parent="1">
          <mxGeometry x="10" y="660" width="90" height="90" as="geometry" />
        </mxCell>
        <mxCell id="rYMrGPzN0T9A6hr5LJIt-38" value="" style="edgeStyle=elbowEdgeStyle;elbow=horizontal;endArrow=classic;html=1;curved=0;rounded=0;endSize=8;startSize=8;entryX=1.014;entryY=0.184;entryDx=0;entryDy=0;entryPerimeter=0;exitX=0.75;exitY=0;exitDx=0;exitDy=0;" edge="1" parent="1" source="rYMrGPzN0T9A6hr5LJIt-25" target="rYMrGPzN0T9A6hr5LJIt-34">
          <mxGeometry width="50" height="50" relative="1" as="geometry">
            <mxPoint x="230" y="750" as="sourcePoint" />
            <mxPoint x="430" y="650" as="targetPoint" />
            <Array as="points">
              <mxPoint x="170" y="740" />
              <mxPoint x="150" y="740" />
            </Array>
          </mxGeometry>
        </mxCell>
        <mxCell id="rYMrGPzN0T9A6hr5LJIt-39" value="Detalji korisničkog računa" style="text;html=1;align=center;verticalAlign=middle;resizable=0;points=[];autosize=1;strokeColor=none;fillColor=none;" vertex="1" parent="1">
          <mxGeometry x="170" y="698" width="160" height="30" as="geometry" />
        </mxCell>
        <mxCell id="rYMrGPzN0T9A6hr5LJIt-40" value="" style="edgeStyle=elbowEdgeStyle;elbow=vertical;endArrow=classic;html=1;curved=0;rounded=0;endSize=8;startSize=8;exitX=1;exitY=1;exitDx=0;exitDy=0;entryX=0.123;entryY=-0.003;entryDx=0;entryDy=0;entryPerimeter=0;" edge="1" parent="1" source="rYMrGPzN0T9A6hr5LJIt-34" target="rYMrGPzN0T9A6hr5LJIt-25">
          <mxGeometry width="50" height="50" relative="1" as="geometry">
            <mxPoint x="380" y="700" as="sourcePoint" />
            <mxPoint x="430" y="650" as="targetPoint" />
          </mxGeometry>
        </mxCell>
        <mxCell id="rYMrGPzN0T9A6hr5LJIt-41" value="Potvrda" style="text;html=1;align=center;verticalAlign=middle;resizable=0;points=[];autosize=1;strokeColor=none;fillColor=none;" vertex="1" parent="1">
          <mxGeometry x="100" y="748" width="60" height="30" as="geometry" />
        </mxCell>
        <mxCell id="rYMrGPzN0T9A6hr5LJIt-45" value="" style="endArrow=none;html=1;rounded=0;exitX=0;exitY=0.25;exitDx=0;exitDy=0;entryX=-0.016;entryY=0.259;entryDx=0;entryDy=0;entryPerimeter=0;" edge="1" parent="1" source="rYMrGPzN0T9A6hr5LJIt-25" target="rYMrGPzN0T9A6hr5LJIt-27">
          <mxGeometry width="50" height="50" relative="1" as="geometry">
            <mxPoint x="380" y="780" as="sourcePoint" />
            <mxPoint x="200" y="818" as="targetPoint" />
          </mxGeometry>
        </mxCell>
        <mxCell id="rYMrGPzN0T9A6hr5LJIt-46" value="" style="endArrow=classic;html=1;rounded=0;exitX=0.5;exitY=1;exitDx=0;exitDy=0;" edge="1" parent="1" source="rYMrGPzN0T9A6hr5LJIt-34">
          <mxGeometry width="50" height="50" relative="1" as="geometry">
            <mxPoint x="380" y="870" as="sourcePoint" />
            <mxPoint x="55" y="960" as="targetPoint" />
          </mxGeometry>
        </mxCell>
        <mxCell id="rYMrGPzN0T9A6hr5LJIt-47" value="Generirano izvešće o naplati" style="rounded=1;whiteSpace=wrap;html=1;" vertex="1" parent="1">
          <mxGeometry x="10" y="960" width="120" height="100" as="geometry" />
        </mxCell>
        <mxCell id="rYMrGPzN0T9A6hr5LJIt-48" value="" style="endArrow=none;html=1;rounded=0;exitX=0;exitY=0.25;exitDx=0;exitDy=0;entryX=1;entryY=0.25;entryDx=0;entryDy=0;" edge="1" parent="1" source="rYMrGPzN0T9A6hr5LJIt-47" target="rYMrGPzN0T9A6hr5LJIt-47">
          <mxGeometry width="50" height="50" relative="1" as="geometry">
            <mxPoint x="380" y="870" as="sourcePoint" />
            <mxPoint x="430" y="820" as="targetPoint" />
          </mxGeometry>
        </mxCell>
        <mxCell id="rYMrGPzN0T9A6hr5LJIt-49" value="" style="edgeStyle=elbowEdgeStyle;elbow=vertical;endArrow=classic;html=1;curved=0;rounded=0;endSize=8;startSize=8;exitX=0.998;exitY=0.421;exitDx=0;exitDy=0;exitPerimeter=0;entryX=0.5;entryY=1;entryDx=0;entryDy=0;" edge="1" parent="1" source="rYMrGPzN0T9A6hr5LJIt-47" target="rYMrGPzN0T9A6hr5LJIt-24">
          <mxGeometry width="50" height="50" relative="1" as="geometry">
            <mxPoint x="380" y="870" as="sourcePoint" />
            <mxPoint x="430" y="830" as="targetPoint" />
            <Array as="points">
              <mxPoint x="150" y="1002" />
            </Array>
          </mxGeometry>
        </mxCell>
        <mxCell id="rYMrGPzN0T9A6hr5LJIt-52" value="Prijava" style="rounded=1;whiteSpace=wrap;html=1;" vertex="1" parent="1">
          <mxGeometry x="500" y="690" width="120" height="110" as="geometry" />
        </mxCell>
        <mxCell id="rYMrGPzN0T9A6hr5LJIt-53" value="" style="edgeStyle=elbowEdgeStyle;elbow=vertical;endArrow=classic;html=1;curved=0;rounded=0;endSize=8;startSize=8;entryX=0.5;entryY=1;entryDx=0;entryDy=0;exitX=1;exitY=0.5;exitDx=0;exitDy=0;" edge="1" parent="1" source="rYMrGPzN0T9A6hr5LJIt-24" target="rYMrGPzN0T9A6hr5LJIt-52">
          <mxGeometry width="50" height="50" relative="1" as="geometry">
            <mxPoint x="410" y="850" as="sourcePoint" />
            <mxPoint x="430" y="820" as="targetPoint" />
          </mxGeometry>
        </mxCell>
        <mxCell id="rYMrGPzN0T9A6hr5LJIt-54" value="" style="endArrow=none;html=1;rounded=0;exitX=0;exitY=0.25;exitDx=0;exitDy=0;entryX=1;entryY=0.25;entryDx=0;entryDy=0;" edge="1" parent="1" source="rYMrGPzN0T9A6hr5LJIt-52" target="rYMrGPzN0T9A6hr5LJIt-52">
          <mxGeometry width="50" height="50" relative="1" as="geometry">
            <mxPoint x="380" y="870" as="sourcePoint" />
            <mxPoint x="430" y="820" as="targetPoint" />
          </mxGeometry>
        </mxCell>
        <mxCell id="rYMrGPzN0T9A6hr5LJIt-57" value="" style="edgeStyle=elbowEdgeStyle;elbow=vertical;endArrow=classic;html=1;curved=0;rounded=0;endSize=8;startSize=8;exitX=0;exitY=0.5;exitDx=0;exitDy=0;" edge="1" parent="1" source="rYMrGPzN0T9A6hr5LJIt-52">
          <mxGeometry width="50" height="50" relative="1" as="geometry">
            <mxPoint x="380" y="680" as="sourcePoint" />
            <mxPoint x="470" y="630" as="targetPoint" />
            <Array as="points">
              <mxPoint x="480" y="745" />
              <mxPoint x="490" y="745" />
              <mxPoint x="460" y="740" />
              <mxPoint x="470" y="745" />
              <mxPoint x="470" y="745" />
              <mxPoint x="450" y="745" />
            </Array>
          </mxGeometry>
        </mxCell>
        <mxCell id="rYMrGPzN0T9A6hr5LJIt-58" value="Pretraživanje filmova" style="rounded=1;whiteSpace=wrap;html=1;" vertex="1" parent="1">
          <mxGeometry x="420" y="530" width="120" height="98" as="geometry" />
        </mxCell>
        <mxCell id="rYMrGPzN0T9A6hr5LJIt-60" value="" style="endArrow=none;html=1;rounded=0;exitX=0;exitY=0.25;exitDx=0;exitDy=0;entryX=1;entryY=0.25;entryDx=0;entryDy=0;" edge="1" parent="1" source="rYMrGPzN0T9A6hr5LJIt-58" target="rYMrGPzN0T9A6hr5LJIt-58">
          <mxGeometry width="50" height="50" relative="1" as="geometry">
            <mxPoint x="380" y="680" as="sourcePoint" />
            <mxPoint x="430" y="630" as="targetPoint" />
          </mxGeometry>
        </mxCell>
        <mxCell id="rYMrGPzN0T9A6hr5LJIt-63" value="Filter za &lt;br&gt;pretraživanje" style="text;html=1;align=center;verticalAlign=middle;resizable=0;points=[];autosize=1;strokeColor=none;fillColor=none;" vertex="1" parent="1">
          <mxGeometry x="460" y="633" width="90" height="40" as="geometry" />
        </mxCell>
        <mxCell id="rYMrGPzN0T9A6hr5LJIt-64" value="" style="endArrow=classic;html=1;rounded=0;exitX=1;exitY=0.5;exitDx=0;exitDy=0;" edge="1" parent="1" source="rYMrGPzN0T9A6hr5LJIt-58">
          <mxGeometry width="50" height="50" relative="1" as="geometry">
            <mxPoint x="380" y="590" as="sourcePoint" />
            <mxPoint x="640" y="579" as="targetPoint" />
          </mxGeometry>
        </mxCell>
        <mxCell id="rYMrGPzN0T9A6hr5LJIt-65" value="Upit za film" style="text;html=1;align=center;verticalAlign=middle;resizable=0;points=[];autosize=1;strokeColor=none;fillColor=none;" vertex="1" parent="1">
          <mxGeometry x="540" y="550" width="80" height="30" as="geometry" />
        </mxCell>
        <mxCell id="rYMrGPzN0T9A6hr5LJIt-66" value="Pogled na detalje filma(glumci, redatelji, godina izlaska itd.)" style="rounded=1;whiteSpace=wrap;html=1;" vertex="1" parent="1">
          <mxGeometry x="640" y="528" width="120" height="100" as="geometry" />
        </mxCell>
        <mxCell id="rYMrGPzN0T9A6hr5LJIt-67" value="" style="endArrow=none;html=1;rounded=0;exitX=0;exitY=0.25;exitDx=0;exitDy=0;entryX=1;entryY=0.25;entryDx=0;entryDy=0;" edge="1" parent="1" source="rYMrGPzN0T9A6hr5LJIt-66" target="rYMrGPzN0T9A6hr5LJIt-66">
          <mxGeometry width="50" height="50" relative="1" as="geometry">
            <mxPoint x="380" y="590" as="sourcePoint" />
            <mxPoint x="430" y="540" as="targetPoint" />
          </mxGeometry>
        </mxCell>
        <mxCell id="rYMrGPzN0T9A6hr5LJIt-71" value="Streaming filma" style="rounded=1;whiteSpace=wrap;html=1;" vertex="1" parent="1">
          <mxGeometry x="860" y="525" width="120" height="100" as="geometry" />
        </mxCell>
        <mxCell id="rYMrGPzN0T9A6hr5LJIt-72" value="" style="endArrow=classic;html=1;rounded=0;exitX=1;exitY=0.5;exitDx=0;exitDy=0;" edge="1" parent="1" source="rYMrGPzN0T9A6hr5LJIt-66">
          <mxGeometry width="50" height="50" relative="1" as="geometry">
            <mxPoint x="760" y="578" as="sourcePoint" />
            <mxPoint x="760" y="578" as="targetPoint" />
          </mxGeometry>
        </mxCell>
        <mxCell id="rYMrGPzN0T9A6hr5LJIt-73" value="" style="endArrow=classic;html=1;rounded=0;exitX=1;exitY=0.5;exitDx=0;exitDy=0;" edge="1" parent="1" source="rYMrGPzN0T9A6hr5LJIt-66">
          <mxGeometry width="50" height="50" relative="1" as="geometry">
            <mxPoint x="470" y="590" as="sourcePoint" />
            <mxPoint x="860" y="578" as="targetPoint" />
          </mxGeometry>
        </mxCell>
        <mxCell id="rYMrGPzN0T9A6hr5LJIt-74" value="Selekcija filma" style="text;html=1;align=center;verticalAlign=middle;resizable=0;points=[];autosize=1;strokeColor=none;fillColor=none;" vertex="1" parent="1">
          <mxGeometry x="760" y="550" width="100" height="30" as="geometry" />
        </mxCell>
        <mxCell id="rYMrGPzN0T9A6hr5LJIt-75" value="" style="endArrow=none;html=1;rounded=0;exitX=1;exitY=0.25;exitDx=0;exitDy=0;entryX=1.01;entryY=0.022;entryDx=0;entryDy=0;entryPerimeter=0;" edge="1" parent="1" source="rYMrGPzN0T9A6hr5LJIt-124" target="rYMrGPzN0T9A6hr5LJIt-74">
          <mxGeometry width="50" height="50" relative="1" as="geometry">
            <mxPoint x="660" y="590" as="sourcePoint" />
            <mxPoint x="710" y="540" as="targetPoint" />
          </mxGeometry>
        </mxCell>
        <mxCell id="rYMrGPzN0T9A6hr5LJIt-76" value="" style="edgeStyle=elbowEdgeStyle;elbow=horizontal;endArrow=classic;html=1;curved=0;rounded=0;endSize=8;startSize=8;entryX=1;entryY=0.75;entryDx=0;entryDy=0;exitX=0.5;exitY=1;exitDx=0;exitDy=0;" edge="1" parent="1" source="rYMrGPzN0T9A6hr5LJIt-71" target="rYMrGPzN0T9A6hr5LJIt-24">
          <mxGeometry width="50" height="50" relative="1" as="geometry">
            <mxPoint x="920" y="630" as="sourcePoint" />
            <mxPoint x="710" y="720" as="targetPoint" />
            <Array as="points">
              <mxPoint x="920" y="660" />
              <mxPoint x="920" y="710" />
              <mxPoint x="770" y="869" />
            </Array>
          </mxGeometry>
        </mxCell>
        <mxCell id="rYMrGPzN0T9A6hr5LJIt-77" value="Film" style="text;html=1;align=center;verticalAlign=middle;resizable=0;points=[];autosize=1;strokeColor=none;fillColor=none;" vertex="1" parent="1">
          <mxGeometry x="860" y="840" width="50" height="30" as="geometry" />
        </mxCell>
        <mxCell id="rYMrGPzN0T9A6hr5LJIt-78" value="" style="endArrow=classic;html=1;rounded=0;exitX=1;exitY=0.5;exitDx=0;exitDy=0;" edge="1" parent="1" source="rYMrGPzN0T9A6hr5LJIt-52">
          <mxGeometry width="50" height="50" relative="1" as="geometry">
            <mxPoint x="660" y="770" as="sourcePoint" />
            <mxPoint x="730" y="745" as="targetPoint" />
          </mxGeometry>
        </mxCell>
        <mxCell id="rYMrGPzN0T9A6hr5LJIt-79" value="D1" style="rounded=0;whiteSpace=wrap;html=1;fillColor=#e3c800;fontColor=#000000;strokeColor=#B09500;" vertex="1" parent="1">
          <mxGeometry x="730" y="724" width="40" height="36" as="geometry" />
        </mxCell>
        <mxCell id="rYMrGPzN0T9A6hr5LJIt-81" value="Baza podataka korisnika" style="rounded=0;whiteSpace=wrap;html=1;" vertex="1" parent="1">
          <mxGeometry x="770" y="724" width="120" height="36" as="geometry" />
        </mxCell>
        <mxCell id="rYMrGPzN0T9A6hr5LJIt-82" value="Verifikacija" style="text;html=1;align=center;verticalAlign=middle;resizable=0;points=[];autosize=1;strokeColor=none;fillColor=none;" vertex="1" parent="1">
          <mxGeometry x="630" y="718" width="80" height="30" as="geometry" />
        </mxCell>
        <mxCell id="rYMrGPzN0T9A6hr5LJIt-83" value="" style="edgeStyle=elbowEdgeStyle;elbow=vertical;endArrow=classic;html=1;curved=0;rounded=0;endSize=8;startSize=8;entryX=1.014;entryY=0.877;entryDx=0;entryDy=0;entryPerimeter=0;exitX=0.359;exitY=1.04;exitDx=0;exitDy=0;exitPerimeter=0;" edge="1" parent="1" source="rYMrGPzN0T9A6hr5LJIt-81" target="rYMrGPzN0T9A6hr5LJIt-52">
          <mxGeometry width="50" height="50" relative="1" as="geometry">
            <mxPoint x="810" y="800" as="sourcePoint" />
            <mxPoint x="630" y="790" as="targetPoint" />
            <Array as="points">
              <mxPoint x="750" y="786" />
            </Array>
          </mxGeometry>
        </mxCell>
        <mxCell id="rYMrGPzN0T9A6hr5LJIt-84" value="Potvrda valjanosti računa" style="text;html=1;align=center;verticalAlign=middle;resizable=0;points=[];autosize=1;strokeColor=none;fillColor=none;" vertex="1" parent="1">
          <mxGeometry x="630" y="760" width="160" height="30" as="geometry" />
        </mxCell>
        <mxCell id="rYMrGPzN0T9A6hr5LJIt-86" value="" style="edgeStyle=elbowEdgeStyle;elbow=horizontal;endArrow=classic;html=1;curved=0;rounded=0;endSize=8;startSize=8;exitX=0.5;exitY=0;exitDx=0;exitDy=0;" edge="1" parent="1" source="rYMrGPzN0T9A6hr5LJIt-58">
          <mxGeometry width="50" height="50" relative="1" as="geometry">
            <mxPoint x="660" y="500" as="sourcePoint" />
            <mxPoint x="600" y="430" as="targetPoint" />
            <Array as="points">
              <mxPoint x="480" y="390" />
            </Array>
          </mxGeometry>
        </mxCell>
        <mxCell id="rYMrGPzN0T9A6hr5LJIt-87" value="D2" style="rounded=0;whiteSpace=wrap;html=1;fillColor=#e3c800;fontColor=#000000;strokeColor=#B09500;" vertex="1" parent="1">
          <mxGeometry x="600" y="410" width="40" height="40" as="geometry" />
        </mxCell>
        <mxCell id="rYMrGPzN0T9A6hr5LJIt-88" value="Baza podataka filmova" style="rounded=0;whiteSpace=wrap;html=1;" vertex="1" parent="1">
          <mxGeometry x="640" y="410" width="110" height="40" as="geometry" />
        </mxCell>
        <mxCell id="rYMrGPzN0T9A6hr5LJIt-89" value="Film i povezani podaci&amp;nbsp;&lt;br&gt;koje korisnik pretražuje" style="text;html=1;align=center;verticalAlign=middle;resizable=0;points=[];autosize=1;strokeColor=none;fillColor=none;" vertex="1" parent="1">
          <mxGeometry x="450" y="390" width="150" height="40" as="geometry" />
        </mxCell>
        <mxCell id="rYMrGPzN0T9A6hr5LJIt-91" value="Nabava filma" style="rounded=1;whiteSpace=wrap;html=1;" vertex="1" parent="1">
          <mxGeometry x="620" y="200" width="120" height="100" as="geometry" />
        </mxCell>
        <mxCell id="rYMrGPzN0T9A6hr5LJIt-92" value="" style="edgeStyle=elbowEdgeStyle;elbow=vertical;endArrow=classic;html=1;curved=0;rounded=0;endSize=8;startSize=8;exitX=1;exitY=0.5;exitDx=0;exitDy=0;entryX=0.5;entryY=0;entryDx=0;entryDy=0;" edge="1" parent="1" source="rYMrGPzN0T9A6hr5LJIt-88" target="rYMrGPzN0T9A6hr5LJIt-71">
          <mxGeometry width="50" height="50" relative="1" as="geometry">
            <mxPoint x="740" y="420" as="sourcePoint" />
            <mxPoint x="790" y="370" as="targetPoint" />
            <Array as="points">
              <mxPoint x="790" y="430" />
            </Array>
          </mxGeometry>
        </mxCell>
        <mxCell id="rYMrGPzN0T9A6hr5LJIt-93" value="&amp;nbsp; &amp;nbsp; Film" style="text;html=1;align=center;verticalAlign=middle;resizable=0;points=[];autosize=1;strokeColor=none;fillColor=none;" vertex="1" parent="1">
          <mxGeometry x="900" y="428" width="60" height="30" as="geometry" />
        </mxCell>
        <mxCell id="rYMrGPzN0T9A6hr5LJIt-94" value="" style="endArrow=classic;html=1;rounded=0;exitX=0.5;exitY=1;exitDx=0;exitDy=0;entryX=0.451;entryY=0.011;entryDx=0;entryDy=0;entryPerimeter=0;" edge="1" parent="1" source="rYMrGPzN0T9A6hr5LJIt-88" target="rYMrGPzN0T9A6hr5LJIt-66">
          <mxGeometry width="50" height="50" relative="1" as="geometry">
            <mxPoint x="740" y="420" as="sourcePoint" />
            <mxPoint x="790" y="370" as="targetPoint" />
          </mxGeometry>
        </mxCell>
        <mxCell id="rYMrGPzN0T9A6hr5LJIt-95" value="Detalji filma" style="text;html=1;align=center;verticalAlign=middle;resizable=0;points=[];autosize=1;strokeColor=none;fillColor=none;" vertex="1" parent="1">
          <mxGeometry x="690" y="485" width="90" height="30" as="geometry" />
        </mxCell>
        <mxCell id="rYMrGPzN0T9A6hr5LJIt-96" value="" style="endArrow=none;html=1;rounded=0;exitX=0;exitY=0.25;exitDx=0;exitDy=0;entryX=1;entryY=0.25;entryDx=0;entryDy=0;" edge="1" parent="1" source="rYMrGPzN0T9A6hr5LJIt-91" target="rYMrGPzN0T9A6hr5LJIt-91">
          <mxGeometry width="50" height="50" relative="1" as="geometry">
            <mxPoint x="740" y="340" as="sourcePoint" />
            <mxPoint x="790" y="290" as="targetPoint" />
          </mxGeometry>
        </mxCell>
        <mxCell id="rYMrGPzN0T9A6hr5LJIt-97" value="" style="endArrow=classic;html=1;rounded=0;entryX=0.5;entryY=1;entryDx=0;entryDy=0;exitX=0.364;exitY=0;exitDx=0;exitDy=0;exitPerimeter=0;" edge="1" parent="1" source="rYMrGPzN0T9A6hr5LJIt-88" target="rYMrGPzN0T9A6hr5LJIt-91">
          <mxGeometry width="50" height="50" relative="1" as="geometry">
            <mxPoint x="680" y="400" as="sourcePoint" />
            <mxPoint x="840" y="290" as="targetPoint" />
          </mxGeometry>
        </mxCell>
        <mxCell id="rYMrGPzN0T9A6hr5LJIt-98" value="" style="endArrow=classic;html=1;rounded=0;exitX=1.012;exitY=0.307;exitDx=0;exitDy=0;exitPerimeter=0;entryX=0.003;entryY=0.313;entryDx=0;entryDy=0;entryPerimeter=0;" edge="1" parent="1" source="rYMrGPzN0T9A6hr5LJIt-91" target="rYMrGPzN0T9A6hr5LJIt-99">
          <mxGeometry width="50" height="50" relative="1" as="geometry">
            <mxPoint x="790" y="340" as="sourcePoint" />
            <mxPoint x="860" y="250" as="targetPoint" />
            <Array as="points">
              <mxPoint x="800" y="230" />
            </Array>
          </mxGeometry>
        </mxCell>
        <mxCell id="rYMrGPzN0T9A6hr5LJIt-99" value="Dobavljač" style="whiteSpace=wrap;html=1;aspect=fixed;" vertex="1" parent="1">
          <mxGeometry x="860" y="200" width="100" height="100" as="geometry" />
        </mxCell>
        <mxCell id="rYMrGPzN0T9A6hr5LJIt-100" value="Narudžba" style="text;html=1;align=center;verticalAlign=middle;resizable=0;points=[];autosize=1;strokeColor=none;fillColor=none;" vertex="1" parent="1">
          <mxGeometry x="760" y="200" width="80" height="30" as="geometry" />
        </mxCell>
        <mxCell id="rYMrGPzN0T9A6hr5LJIt-103" value="P5" style="rounded=1;whiteSpace=wrap;html=1;fillColor=#1ba1e2;fontColor=#ffffff;strokeColor=#006EAF;" vertex="1" parent="1">
          <mxGeometry x="420" y="530" width="120" height="30" as="geometry" />
        </mxCell>
        <mxCell id="rYMrGPzN0T9A6hr5LJIt-104" value="Podaci za prijavu" style="text;html=1;align=center;verticalAlign=middle;resizable=0;points=[];autosize=1;strokeColor=none;fillColor=none;" vertex="1" parent="1">
          <mxGeometry x="425" y="820" width="110" height="30" as="geometry" />
        </mxCell>
        <mxCell id="rYMrGPzN0T9A6hr5LJIt-105" value="Račun" style="text;html=1;align=center;verticalAlign=middle;resizable=0;points=[];autosize=1;strokeColor=none;fillColor=none;" vertex="1" parent="1">
          <mxGeometry x="200" y="968" width="60" height="30" as="geometry" />
        </mxCell>
        <mxCell id="rYMrGPzN0T9A6hr5LJIt-106" value="" style="endArrow=classic;html=1;rounded=0;exitX=-0.024;exitY=0.814;exitDx=0;exitDy=0;exitPerimeter=0;entryX=1.017;entryY=0.821;entryDx=0;entryDy=0;entryPerimeter=0;" edge="1" parent="1" source="rYMrGPzN0T9A6hr5LJIt-99" target="rYMrGPzN0T9A6hr5LJIt-91">
          <mxGeometry width="50" height="50" relative="1" as="geometry">
            <mxPoint x="410" y="430" as="sourcePoint" />
            <mxPoint x="460" y="380" as="targetPoint" />
          </mxGeometry>
        </mxCell>
        <mxCell id="rYMrGPzN0T9A6hr5LJIt-107" value="Novi film" style="text;html=1;align=center;verticalAlign=middle;resizable=0;points=[];autosize=1;strokeColor=none;fillColor=none;" vertex="1" parent="1">
          <mxGeometry x="757" y="248" width="70" height="30" as="geometry" />
        </mxCell>
        <mxCell id="rYMrGPzN0T9A6hr5LJIt-108" value="Nabavljanje novih filmova" style="text;html=1;align=center;verticalAlign=middle;resizable=0;points=[];autosize=1;strokeColor=none;fillColor=none;" vertex="1" parent="1">
          <mxGeometry x="680" y="340" width="160" height="30" as="geometry" />
        </mxCell>
        <mxCell id="rYMrGPzN0T9A6hr5LJIt-109" value="" style="endArrow=classic;html=1;rounded=0;" edge="1" parent="1">
          <mxGeometry width="50" height="50" relative="1" as="geometry">
            <mxPoint x="230" y="456" as="sourcePoint" />
            <mxPoint x="50" y="456" as="targetPoint" />
          </mxGeometry>
        </mxCell>
        <mxCell id="rYMrGPzN0T9A6hr5LJIt-110" value="Zahtjev za identifikaciju" style="text;html=1;align=center;verticalAlign=middle;resizable=0;points=[];autosize=1;strokeColor=none;fillColor=none;" vertex="1" parent="1">
          <mxGeometry x="60" y="428" width="150" height="30" as="geometry" />
        </mxCell>
        <mxCell id="rYMrGPzN0T9A6hr5LJIt-111" value="" style="endArrow=classic;html=1;rounded=0;exitX=0.006;exitY=0.432;exitDx=0;exitDy=0;exitPerimeter=0;" edge="1" parent="1" source="rYMrGPzN0T9A6hr5LJIt-3">
          <mxGeometry width="50" height="50" relative="1" as="geometry">
            <mxPoint x="420" y="520" as="sourcePoint" />
            <mxPoint x="50" y="482" as="targetPoint" />
          </mxGeometry>
        </mxCell>
        <mxCell id="rYMrGPzN0T9A6hr5LJIt-112" value="Podaci za registraciju" style="text;html=1;align=center;verticalAlign=middle;resizable=0;points=[];autosize=1;strokeColor=none;fillColor=none;" vertex="1" parent="1">
          <mxGeometry x="80" y="458" width="140" height="30" as="geometry" />
        </mxCell>
        <mxCell id="rYMrGPzN0T9A6hr5LJIt-113" value="" style="endArrow=classic;html=1;rounded=0;exitX=1.013;exitY=0.575;exitDx=0;exitDy=0;exitPerimeter=0;entryX=-0.009;entryY=0.652;entryDx=0;entryDy=0;entryPerimeter=0;" edge="1" parent="1" source="rYMrGPzN0T9A6hr5LJIt-1" target="rYMrGPzN0T9A6hr5LJIt-3">
          <mxGeometry width="50" height="50" relative="1" as="geometry">
            <mxPoint x="420" y="520" as="sourcePoint" />
            <mxPoint x="470" y="470" as="targetPoint" />
          </mxGeometry>
        </mxCell>
        <mxCell id="rYMrGPzN0T9A6hr5LJIt-114" value="Identifikacija" style="text;html=1;align=center;verticalAlign=middle;resizable=0;points=[];autosize=1;strokeColor=none;fillColor=none;" vertex="1" parent="1">
          <mxGeometry x="90" y="485" width="90" height="30" as="geometry" />
        </mxCell>
        <mxCell id="rYMrGPzN0T9A6hr5LJIt-115" value="" style="endArrow=classic;html=1;rounded=0;exitX=-0.004;exitY=0.837;exitDx=0;exitDy=0;exitPerimeter=0;" edge="1" parent="1" source="rYMrGPzN0T9A6hr5LJIt-3">
          <mxGeometry width="50" height="50" relative="1" as="geometry">
            <mxPoint x="420" y="520" as="sourcePoint" />
            <mxPoint x="50" y="530" as="targetPoint" />
          </mxGeometry>
        </mxCell>
        <mxCell id="rYMrGPzN0T9A6hr5LJIt-116" value="Izbor pretplate" style="text;html=1;align=center;verticalAlign=middle;resizable=0;points=[];autosize=1;strokeColor=none;fillColor=none;" vertex="1" parent="1">
          <mxGeometry x="90" y="508" width="100" height="30" as="geometry" />
        </mxCell>
        <mxCell id="rYMrGPzN0T9A6hr5LJIt-117" value="" style="edgeStyle=elbowEdgeStyle;elbow=vertical;endArrow=classic;html=1;curved=0;rounded=0;endSize=8;startSize=8;exitX=0.874;exitY=1.027;exitDx=0;exitDy=0;exitPerimeter=0;entryX=0.11;entryY=1;entryDx=0;entryDy=0;entryPerimeter=0;" edge="1" parent="1" source="rYMrGPzN0T9A6hr5LJIt-1" target="rYMrGPzN0T9A6hr5LJIt-3">
          <mxGeometry width="50" height="50" relative="1" as="geometry">
            <mxPoint x="60" y="580" as="sourcePoint" />
            <mxPoint x="480" y="490" as="targetPoint" />
            <Array as="points">
              <mxPoint x="290" y="600" />
            </Array>
          </mxGeometry>
        </mxCell>
        <mxCell id="rYMrGPzN0T9A6hr5LJIt-118" value="Odabir pretplate" style="text;html=1;align=center;verticalAlign=middle;resizable=0;points=[];autosize=1;strokeColor=none;fillColor=none;" vertex="1" parent="1">
          <mxGeometry x="85" y="570" width="110" height="30" as="geometry" />
        </mxCell>
        <mxCell id="rYMrGPzN0T9A6hr5LJIt-119" value="P1" style="rounded=1;whiteSpace=wrap;html=1;fillColor=#1ba1e2;fontColor=#ffffff;strokeColor=#006EAF;" vertex="1" parent="1">
          <mxGeometry x="230" y="430" width="140" height="30" as="geometry" />
        </mxCell>
        <mxCell id="rYMrGPzN0T9A6hr5LJIt-120" value="P2" style="rounded=1;whiteSpace=wrap;html=1;fillColor=#1ba1e2;fontColor=#ffffff;strokeColor=#006EAF;" vertex="1" parent="1">
          <mxGeometry x="90" y="793" width="120" height="30" as="geometry" />
        </mxCell>
        <mxCell id="rYMrGPzN0T9A6hr5LJIt-121" value="P3" style="rounded=1;whiteSpace=wrap;html=1;fillColor=#1ba1e2;fontColor=#ffffff;strokeColor=#006EAF;" vertex="1" parent="1">
          <mxGeometry x="10" y="960" width="120" height="30" as="geometry" />
        </mxCell>
        <mxCell id="rYMrGPzN0T9A6hr5LJIt-122" value="P4" style="rounded=1;whiteSpace=wrap;html=1;fillColor=#1ba1e2;fontColor=#ffffff;strokeColor=#006EAF;" vertex="1" parent="1">
          <mxGeometry x="500" y="690" width="120" height="30" as="geometry" />
        </mxCell>
        <mxCell id="rYMrGPzN0T9A6hr5LJIt-123" value="P6" style="rounded=1;whiteSpace=wrap;html=1;fillColor=#1ba1e2;fontColor=#ffffff;strokeColor=#006EAF;" vertex="1" parent="1">
          <mxGeometry x="640" y="528" width="120" height="25" as="geometry" />
        </mxCell>
        <mxCell id="rYMrGPzN0T9A6hr5LJIt-125" value="" style="endArrow=none;html=1;rounded=0;exitX=1;exitY=0.25;exitDx=0;exitDy=0;entryX=1.01;entryY=0.022;entryDx=0;entryDy=0;entryPerimeter=0;" edge="1" parent="1" source="rYMrGPzN0T9A6hr5LJIt-71" target="rYMrGPzN0T9A6hr5LJIt-124">
          <mxGeometry width="50" height="50" relative="1" as="geometry">
            <mxPoint x="980" y="550" as="sourcePoint" />
            <mxPoint x="861" y="551" as="targetPoint" />
          </mxGeometry>
        </mxCell>
        <mxCell id="rYMrGPzN0T9A6hr5LJIt-124" value="P7" style="rounded=1;whiteSpace=wrap;html=1;fillColor=#1ba1e2;fontColor=#ffffff;strokeColor=#006EAF;" vertex="1" parent="1">
          <mxGeometry x="860" y="524.5" width="120" height="32" as="geometry" />
        </mxCell>
        <mxCell id="rYMrGPzN0T9A6hr5LJIt-126" value="P8" style="rounded=1;whiteSpace=wrap;html=1;fillColor=#1ba1e2;fontColor=#ffffff;strokeColor=#006EAF;" vertex="1" parent="1">
          <mxGeometry x="620" y="200" width="120" height="28" as="geometry" />
        </mxCell>
      </root>
    </mxGraphModel>
  </diagram>
</mxfile>
